<?xml version="1.0" encoding="utf-8"?>
<!-- Generator: Adobe Illustrator 21.0.0, SVG Export Plug-In . SVG Version: 6.00 Build 0)  -->
<svg version="1.1" id="Layer_1" xmlns="http://www.w3.org/2000/svg" xmlns:xlink="http://www.w3.org/1999/xlink" x="0px" y="0px"
	 viewBox="0 0 100 100" enable-background="new 0 0 100 100" xml:space="preserve">
<path fill="#DA5548" d="M88.5,27.5c-12.9,0-25.8-0.1-38.7,0c-10.9,0.1-19,6.5-22.3,16.8c-2.3-3.5-4.3-7.2-6.5-10.8
	c-1.1-1.9-2.2-3.8-3.4-5.6c-0.8-1.4-3-3.8-2.9-5.4c0.1-1.3,1.9-2.7,2.7-3.6c1.2-1.3,2.5-2.5,3.9-3.7C24.1,13,27,11.1,30,9.6
	c13-6.4,28.8-6.2,41.4,0.9c3.6,2,7,4.5,9.9,7.4c1.5,1.5,2.9,3.1,4.1,4.8C86.1,23.5,88.8,26.5,88.5,27.5z"/>
<path fill="#FACF5A" d="M50.6,94.9c6.3-10.8,12.7-21.6,18.9-32.5c2.7-4.8,4.2-10,3.3-15.6c-0.8-5.4-3.7-9.7-7.2-13.7
	c7.9,0,15.8,0,23.7,0c2.2,0,2.6,0.2,3.3,2.2c0.7,1.8,1.2,3.6,1.5,5.4c0.8,3.9,1,7.9,0.9,11.8C94.2,67,86.3,80.1,74.3,88
	C67.5,92.4,58.8,95.3,50.6,94.9z"/>
<path fill="#67A648" d="M56.4,71.9c-2.3,3.9-4.5,7.9-6.8,11.8c-1,1.7-2,3.5-3,5.2c-0.6,1-1.2,2-1.7,3c-0.4,0.7-0.8,2-1.7,2.3
	c-1.1,0.4-3.3-0.5-4.5-0.8c-1.6-0.4-3.2-0.9-4.8-1.5c-3-1.1-5.9-2.6-8.6-4.4C13.7,80,6.4,67.4,5.2,53.5c-0.8-8.8,1-18.3,5.5-25.9
	c6.7,10.8,12.4,22.2,18.9,33.1c2.7,4.6,6.4,8.2,11.3,10.4C46.1,73.4,51,73.2,56.4,71.9z"/>
<path fill="#3991CF" d="M33.2,51.1c-0.8-7.3,4.2-14.3,10.9-16.9c5.8-2.2,12.5-0.9,17.1,3.3c5,4.5,6.9,11.9,4.6,18.3
	c-2.4,6.6-9.1,11.6-16.2,11.1c-4.2-0.3-8.2-1.7-11.3-4.7c-1.5-1.5-2.8-3.2-3.7-5.2c-0.5-1.1-0.9-2.2-1.1-3.4
	C33.4,53,33.6,51.6,33.2,51.1z"/>
<path fill="#3991CF" d="M33.4,48.1c0,0.3,0.1,0.6-0.1,0.9C33.2,48.6,33.2,48.3,33.4,48.1z"/>
<path fill="#3991CF" d="M33.2,51.1c0.2,0.3,0.1,0.6,0.1,0.9C33.2,51.7,33.2,51.4,33.2,51.1z"/>
<path fill="#3991CF" d="M48.1,66.7c0.3,0,0.6-0.1,0.9,0.1C48.7,66.8,48.4,66.9,48.1,66.7z"/>
<path fill="#3991CF" d="M51.1,66.8c0.3-0.2,0.6-0.1,0.9-0.1C51.7,66.9,51.4,66.8,51.1,66.8z"/>
<path fill="#3991CF" d="M33.5,46.8c0,0.2,0,0.4-0.1,0.5C33.4,47.2,33.4,47,33.5,46.8z"/>
<path fill="#3991CF" d="M46.9,66.5c0.2,0,0.4,0,0.5,0.1C47.2,66.7,47,66.7,46.9,66.5z"/>
<path fill="#3991CF" d="M52.7,66.6c0.1-0.2,0.3-0.1,0.5-0.1C53.1,66.7,52.9,66.7,52.7,66.6z"/>
<path fill="#3991CF" d="M33.4,52.8c0,0.1,0.1,0.2,0.1,0.3C33.4,53.1,33.4,53,33.4,52.8z"/>
</svg>
