<?xml version="1.0" encoding="utf-8"?>
<!-- Generator: Adobe Illustrator 21.0.0, SVG Export Plug-In . SVG Version: 6.00 Build 0)  -->
<svg version="1.1" id="Layer_1" xmlns="http://www.w3.org/2000/svg" xmlns:xlink="http://www.w3.org/1999/xlink" x="0px" y="0px"
	 viewBox="0 0 100 100" enable-background="new 0 0 100 100" xml:space="preserve">
<path fill="#FFFEFD" d="M37.6,37.2c0.7-0.3,1.3-0.7,2-1c1-0.3,2-0.4,3,0.1c1.1,0.5,2.2,0.3,3.2-0.3c1-0.6,1.7-1.5,2.6-2.1l0,0
	c0.1,0.4-0.2,0.7-0.4,1c-0.5,0.6-1.3,0.9-1.7,1.6c0,0,0,0,0,0c-0.3,0-0.5,0.1-0.5,0.4c0,0,0,0,0,0c-0.1,0.1-0.1,0.1-0.2,0.2
	c0,0,0,0,0,0c-0.3,0-0.7,0-0.8,0.4c-0.9,0.3-1.9,0.4-2.9,0.6c-1,0.1-2,0.3-2.6,1.2c-0.1-0.1-0.3-0.2-0.4-0.3
	C38.2,38.2,37.8,37.8,37.6,37.2z"/>
<g>
	<path fill="#B93726" d="M61.8,83.5c-0.5-0.8-1-1-1.8-0.8c-0.6,0.1-1.1,0.1-1.7,0.1c-1.9,0-3.7-0.4-5.5-0.8
		c-4.2-0.9-8.3-2.6-12.4-3.8c0.7,0.8,1.8,1.1,2.7,1.7c0.5,0.3,1,0.6,1.5,0.8c1,0.4,2,0.8,3,1.3c2,0.7,4.1,1.4,6.2,2
		c-2.1-0.3-4.2-0.4-6.2-1.1c-1.1-0.1-2.2-0.5-3.3-0.9c-3.4-0.8-6.6-2.3-9.7-3.9c-1.9-1.3-4-2.1-6.2-2.6c0.5,1,1.5,1.6,2,2.6
		c1.5,1.4,2.9,2.8,4.4,4.2c-2-0.8-4-1.8-5.9-2.9c-2.8-1.6-5.4-3.6-7.5-6c-2.1-2-3.7-4.4-5-7.2c0,0.3,0,0.5-0.1,0.6
		c0.7,2.7,1.9,5.2,3.2,7.6c0.1,0.1,0.3,0.2,0.2,0.3c-0.1,0.1-0.2-0.1-0.3-0.2c-2-1.8-3.7-3.9-4.8-6.3c-0.1-0.3-0.2-0.6-0.3-0.9
		c-1.1-2.2-1.6-4.5-1.8-6.9c-0.1-0.8-0.3-1.3-1.1-1.5c0,1.5,0,3,0,4.6c0,1.3,0,2.7,0.2,4c-0.5-1.2-0.9-2.4-1.1-3.6
		c-0.7-2-1.1-4.1-1.3-6.2c-0.3-0.5-0.2-1-0.2-1.5c-0.3-2.3-0.4-4.6-0.2-7c0.1-1,0.6-2,0.1-3.1c-0.3,0.7-0.5,1.3-0.8,2
		c0,0.1,0,0.1,0,0.2c0,0.1-0.1,0.1-0.1,0.2c-0.2,1-0.5,2.1-0.9,3.1C6.8,52.9,6.6,54,6.4,55c0.2,0.1,0.2,0.2,0.2,0.4
		c0.7,6,2.9,11.4,5.8,16.6c9.4,16.3,25.2,23.4,42.8,21.3c0.1,0,0.3,0,0.4,0c0.2,0,0.3,0,0.5-0.1c0.2,0.1,0.4,0,0.6-0.1
		c0.1,0,0.2,0,0.3,0c2-0.2,4-0.6,5.9-1.2c0.7-0.6,1.6-0.7,2.4-1.1c0.4-0.2,0.6-0.4,0.3-1C64.3,87.7,63,85.6,61.8,83.5z"/>
	<path fill="#B93726" d="M11,30.6c0.3,0,0.4-0.2,0.5-0.4c0.8-1,1.7-2.1,2.7-2.9c0,0,0.1,0,0.1,0c0,0,0-0.1-0.1-0.1
		c-0.3-0.1-0.6-0.2-0.9-0.2c1.2-0.3,2.3-0.6,3.3-1.3c-0.7-0.6-1.6-0.7-2.3-1.1c-0.5-0.1-0.9-0.2-1.3-0.5c-0.1,0-0.2,0-0.4,0
		c-0.5-0.1-0.9,0.1-1.4,0.2c-0.2,1.1-0.3,2.2-0.3,3.3C10.9,28.5,11,29.5,11,30.6z"/>
	<path fill="#B93726" d="M28.4,63.7c1.9,1.6,3.9,2.7,6.1,3.8c0.3,0.1,0.5,0.1,0.8,0.1c1.3-0.2,2.3-0.9,3.4-1.5
		c0.1,0,0.2,0.1,0.2,0.1c0.4-0.2,0.7-0.1,1.1,0c1.9,0.2,3.8,0.1,5.7-0.2c2.8-0.4,5.2-1.9,7.5-3.5c0.9-0.8,2-1.4,3.1-2
		c-1.3-0.7-2.4-0.4-3.6,0.4c-2.1,1.3-4.5,1.7-6.9,1.9c-1.6,0.1-3.3,0.2-4.8,0c-1.9-0.3-3.7-1-5.3-2c-0.3-0.2-0.5-0.3-0.8-0.3
		c0,0,0,0,0,0c-0.4-1.4-0.8-2.8-1.3-4.2c0,0,0,0,0,0c-0.1-1.6-0.3-3.1-0.2-4.7c0-0.4,0-0.8,0.3-1.1c0-0.6-0.1-1.1,0.3-1.6
		c0-0.3,0.1-0.6,0.4-0.8c0.5-1.1,1.6-1.3,2.5-1.8c-0.2-0.1-0.3-0.1-0.5-0.2c-0.3,0-0.5,0-0.8,0c-1.4,0.1-2.8-0.1-4.2,0.2
		c-0.1,0.2-0.3,0.2-0.5,0.2c-1.8,0.4-3.5,1.1-4.9,2.4c-3.2,2.9-3.5,7.6-1,11.5C25.8,61.6,27.1,62.6,28.4,63.7z M33.2,56.2
		C33.2,56.2,33.2,56.2,33.2,56.2C33.2,56.2,33.2,56.2,33.2,56.2z"/>
	<path fill="#B93726" d="M74.8,74.7c-1.3,0.3-2.6,0.2-3.9,0.1c-0.3,0-0.4,0.1-0.6,0.3c-1.9,2.1-3.9,4.3-6.1,6.1
		c-0.2,0.2-0.4,0.5-0.4,0.8c0.8,0,1.4-0.5,2.2-0.6c0.9-0.4,1.8-0.7,2.7-1.1c1.2-0.7,2.4-1.3,3.7-2c1.4-1.1,2.9-2.1,4.1-3.4
		C76,74.7,75.4,74.5,74.8,74.7z"/>
	<path fill="#B93726" d="M36.8,34.1c0.2,1,0.1,2.2,0.8,3.1c0.7-0.3,1.3-0.7,2-1c-0.1-1.4,0-2.7,0.2-4c-0.1,1.3-0.3,2.7-0.2,4
		c1-0.3,2-0.4,3,0.1c1.1,0.5,2.2,0.3,3.2-0.3c1-0.6,1.7-1.5,2.6-2.1c0-0.7-0.6-1.1-0.9-1.6c-0.4-0.3-0.8-0.5-1.2-0.8
		c-0.8-0.2-1.6-0.1-2.4-0.1c-1.3,0-2.6,0.1-3.9-0.4c-1.4-0.9-2.3-2.1-3-3.5c-0.1,0.4-0.2,0.7-0.3,1.1C36.6,30.3,36.4,32.2,36.8,34.1
		z"/>
	<path fill="#B93726" d="M18.7,24.5c-0.3-0.5-0.8-0.5-1.2-0.9c0.9,0.1,1.7,0.3,2.6,0.2c-0.2-0.5-0.7-0.3-0.9-0.6
		c-0.3-0.1-0.6-0.2-0.9-0.4c-0.3-0.2-0.8-0.3-1,0c-0.5,0.6-1.1,0.4-1.7,0.6c-0.4,0.1-0.9,0.2-1.1,0.7c0.1,0.1,0.1,0.1,0.2,0.2
		C15.9,24.5,17.2,24.8,18.7,24.5z"/>
</g>
<path fill="#90D5E1" d="M76.1,28.5c0-0.1,0.1-0.1,0.2-0.1C76.2,28.4,76.1,28.5,76.1,28.5z"/>
<g>
	<polygon fill="#E0782C" points="78.3,49.4 78.3,49.4 78.3,49.4 	"/>
	<polygon fill="#E0782C" points="78.1,49.2 78.1,49.2 78.1,49.2 	"/>
	<path fill="#E0782C" d="M77.6,16.6C77.6,16.6,77.6,16.6,77.6,16.6C77.6,16.6,77.6,16.6,77.6,16.6C77.6,16.6,77.6,16.6,77.6,16.6z"
		/>
	<path fill="#E0782C" d="M95.1,38.6c-0.1,0-0.1,0-0.2,0c-0.3,1.8-0.6,3.7-0.9,5.5c-0.1-0.2-0.2-0.3-0.2-0.5
		c-0.6-4.2-1.2-8.3-2.2-12.4c-0.8-3.2-2-6.2-3.7-9.1c-0.3-0.5-0.6-1-1.3-1.3c0.3,0.9,0.6,1.6,0.8,2.4c0.2,0.7,0.4,1.5,0.5,2.2
		c0.1,0.7,0.2,1.5,0.3,2.2c-0.5-0.5-0.7-1.1-1-1.7c-2.2-4-5.2-7.1-9.2-9.2c-0.1,0-0.3,0-0.3-0.2c-2-0.6-3.9-1.4-5.9-1.8
		c-1.7-0.4-3.4-0.7-5-1c-0.2,0-0.5,0-0.7,0c-1.7-0.1-3.4-0.3-5.3,0.1c0.9,0.4,1.6,0.6,2.5,0.7c0.8,0.1,1.5,0.3,2.3,0.5
		c0.8,0.2,1.6,0.2,2.3,0.7l0,0c0.5,0.2,1,0.3,1.4,0.5c1.4,0.4,2.8,0.8,3.9,2c-1,0.1-1.8,0.1-2.6,0.2c-1,0.1-2.1,0.3-3.1,0.4
		c-1,0.2-2,0.5-2.9,0.7c-0.1,0.4,0.4,0.2,0.4,0.4c0.2,0.1,0.4-0.1,0.5,0.2l0,0c0.2,0.1,0.4-0.1,0.5,0.2l0,0c1.2,0.1,2.3,0.6,3.5,1.1
		c0.2,0.1,0.4,0,0.4,0.2l0,0c0.4-0.1,0.7,0.2,1,0.4c0.1,0,0.3,0,0.4,0c2.5,1.3,4.8,2.7,6.7,4.8c0.9,1.1,1.9,2.1,2.7,3.2
		c0.2,0.3,0.5,0.6,0.4,1c0.3,0.1,0.5,0.3,0.5,0.6l0,0c0.2,0.2,0.3,0.4,0.4,0.7l0,0c0.2,0.1,0.2,0.2,0.2,0.4l0,0
		c0.5,0.9,1,1.7,1.1,2.8c0,0.1,0,0.2,0,0.3c0.3,0.1,0.1,0.4,0.2,0.5c0.2,0.2,0.3,0.5,0,0.6c-0.2,0.1-0.3-0.2-0.5-0.3
		c-0.3-0.4-0.5-0.7-0.8-1.1c-0.7-0.6-1.3-1.2-2.2-1.5c0.4,1.4,0.7,2.8,0.8,4.2c0,0.5,0.1,1.1,0.1,1.6c0,2.3,0.2,4.6-0.3,6.8
		c0,1.4-0.3,2.7-0.7,4c0,0.2,0,0.4-0.2,0.4c-0.2,0-0.3-0.2-0.4-0.3c-0.3-0.5-0.6-1-0.9-1.5c-0.1,0-0.2-0.1-0.2-0.2
		c-0.1,0-0.2-0.1-0.2-0.2l0,0c-0.1-0.1-0.2-0.1-0.3-0.2c-0.4-0.2-0.8-0.5-1.2-0.7c0,0.3,0,0.5,0,0.8c0.1,0.8,0.2,1.7,0.2,2.5l0,0
		c0,1,0,1.9,0,2.9c-0.1,0.5,0,1-0.2,1.5c-0.1,0.5,0.2,1-0.2,1.5c0,0.1,0,0.2,0,0.3c-0.2,3.7-2,8.7-4.4,9.9c0-1.2,0.5-2.2,0.7-3.3
		c0.2-1.1,0.7-2.2,0.5-3.5c-1.1,1.5-2.1,2.9-3.1,4.3c0.2,0.1,0.4,0.2,0.5,0.4c-0.1-0.2-0.3-0.3-0.5-0.4c-0.3,0.4-0.6,0.7-0.9,1.1
		c-0.9,0.7-1.5,1.6-2.4,2.2c-1.7,1.5-3.5,2.7-5.6,3.4c-2.3,1-4.7,1.3-7.1,1c-5.3-0.5-9.8-3-14.2-5.9c-0.3-0.2-0.7-0.4-1-0.6
		c-0.1,0-0.2-0.1-0.2-0.1c-1,0.7-2.1,1.3-3.4,1.5c-0.3,0-0.5,0.1-0.8-0.1c-2.1-1.1-4.2-2.2-6.1-3.8c-1.3-1.1-2.6-2.1-3.5-3.6
		c-2.6-3.8-2.2-8.5,1-11.5c1.4-1.3,3.1-2,4.9-2.4c0.2,0,0.4,0,0.5-0.2c-0.2-0.2-0.1-0.3,0-0.4c-0.1,0.1-0.2,0.2,0,0.4
		c1.4-0.3,2.8-0.2,4.2-0.2c0,0,0,0,0,0c0.3,0,0.5,0,0.8,0c0.2,0.1,0.3,0.1,0.5,0.2c1.2,0.2,2.3,0.5,3.4,1c0.2,0.1,0.6,0.5,0.6-0.2
		c0.1-1.6,0-3.2-0.5-4.7c0-0.3,0-0.6-0.3-0.7C39.8,41.3,40,41.2,40,41c-0.4-0.6-0.7-1.3-1.1-1.9c-0.1-0.1-0.3-0.2-0.4-0.3h0
		c-0.3-0.5-0.8-1-1-1.6c-0.7-0.9-0.6-2.1-0.8-3.1c-0.4-1.9-0.1-3.8-0.2-5.7l0,0c0.1-0.4,0.2-0.7,0.3-1.1c0.1-0.5,0.2-1.1,0.3-1.6
		c0.3-0.9,0.7-1.7,1-2.6c0.1-0.2,0.4-0.2,0.4-0.4c0.2-0.2,0.3-0.4,0.5-0.7l0,0c0.4-0.8,1.2-1.3,1.8-2c0.1,0,0.2,0,0.2-0.1l0,0
		c0-0.1,0.1-0.2,0.2-0.2l0,0c0.2-0.4,0.6-0.7,1.1-0.7l0,0c0.1-0.1,0.1-0.1,0.2-0.2c0-0.1,0.5-0.3-0.1-0.3c-1,0-1.9,0.1-2.8,0.3
		c-1.7,0.3-3.3,0.8-4.8,1.7c-0.7,0.2-1.3,0.8-2,1.1c-0.1,0.2-0.3,0.3-0.4,0.5c-0.7,0.3-1.1,1-1.6,1.5c-1.3-0.5-2.8-0.5-4.1-0.7
		c-0.1,0-0.1,0-0.2,0c-0.3,0-0.7,0-1,0c-1.1,0.1-2.2,0-3.2,0.5c-0.1,0-0.1,0-0.2,0c-0.8,0-1.6-0.1-2.3-0.3c-0.6-0.6-1.1-1.2-1.7-1.8
		c-0.1-0.1-0.1-0.3-0.2-0.4c-0.2-0.2-0.3-0.3-0.5-0.5c-1-1.6-1.7-3.3-1.9-5.3c-2.2,2.2-3.4,4.7-3.9,7.5c-0.1,0.6-0.2,1.1-0.3,1.7
		c0.5-0.1,0.9-0.3,1.4-0.2c0-0.1,0-0.2,0-0.3c0,0.1,0,0.2,0,0.3c0.1,0,0.2,0,0.4,0c0.4,0.4,0.8,0.4,1.3,0.5c0.8,0.4,1.7,0.5,2.3,1.1
		c-1,0.7-2.1,1-3.3,1.3c0.3,0,0.6,0,0.9,0.2c0,0,0,0.1,0.1,0.1c0,0,0,0-0.1,0c-1.1,0.8-1.9,1.9-2.7,2.9c-0.2,0.2-0.3,0.4-0.5,0.4
		c0,0.4-0.3,0.6-0.5,0.9c-0.9,1.3-1.6,2.6-2.1,4.1c0.2,0,0.3,0,0.5,0c0-0.8,0.3-1,0.6-1c-0.3,0-0.6,0.2-0.6,1c0,0,0,0,0,0l0,0
		c-0.1,0.3-0.1,0.6-0.2,0.9c-0.3,0.7-0.4,1.4-0.4,2.2c0-0.8,0.1-1.5,0.4-2.2c0.1-0.3,0.1-0.6,0.2-0.9c0,0,0,0,0,0
		c-0.2,0-0.3,0-0.5,0c-0.9,1.9-1.6,4-2.1,6c-0.4,1.2-0.7,2.3-0.7,3.6c0.5-0.4,0.5-1.1,1.1-1.4c0,1.2-0.6,2.4-0.5,3.7
		c-0.3,1.4-0.4,2.8-0.4,4.2c-0.2,1.6-0.1,3.2,0,4.8c0.5-0.4,0.2-1,0.5-1.4C6.6,54,6.8,52.9,7,51.8c0.4-1,0.7-2,0.9-3.1
		c0-0.1,0.1-0.1,0.1-0.2c0-0.1,0-0.1,0-0.2c0.3-0.7,0.5-1.3,0.8-2c0.5,1,0,2.1-0.1,3.1c-0.2,2.3-0.1,4.6,0.2,7
		c0.1,0.5-0.1,1,0.2,1.5c0,0,0,0,0,0c0.2,2.1,0.6,4.2,1.3,6.2c0.2,1.3,0.6,2.4,1.1,3.6c-0.2-1.3-0.1-2.7-0.2-4c0-1.5,0-3,0-4.6
		c0.8,0.2,1,0.7,1.1,1.5c0.2,2.4,0.7,4.7,1.8,6.9c0,0,0,0,0,0c0.1,0.3,0.2,0.6,0.3,0.9c1.2,2.4,2.8,4.5,4.8,6.3c0,0,0.1-0.1,0.1-0.1
		c-1.2-2.5-2.4-4.9-3.2-7.6c0-0.1,0-0.3,0.1-0.6c1.3,2.8,3,5.2,5,7.2c0.3-0.1,0.5-0.3,0.7-0.4c-0.2,0.2-0.5,0.3-0.7,0.4
		c2.2,2.4,4.8,4.3,7.5,6c1.9,1.1,3.8,2.1,5.9,2.9c-1.5-1.3-2.9-2.8-4.4-4.2c-0.5-1-1.5-1.6-2-2.6c2.2,0.4,4.3,1.2,6.2,2.6
		c0,0,0.1-0.1,0.1-0.1c0,0-0.1,0.1-0.1,0.1c3.1,1.6,6.3,3.1,9.7,3.9c1.1,0.4,2.2,0.7,3.3,0.9c2,0.6,4.1,0.8,6.2,1.1
		c-2.1-0.6-4.2-1.3-6.2-2c-0.9-0.5-1.9-0.9-2.9-1.3c-0.5-0.3-1-0.5-1.5-0.8c-0.9-0.6-1.9-0.9-2.7-1.7c4.2,1.2,8.2,2.8,12.4,3.8
		c1.8,0.4,3.6,0.8,5.5,0.8c0.6,0,1.1,0,1.7-0.1c0.7-0.2,1.3-0.1,1.8,0.8c1.2,2.1,2.4,4.2,3.7,6.3c0.3,0.5,0.1,0.7-0.3,1
		c-0.8,0.5-1.7,0.5-2.4,1.1c2.8-0.6,5.5-1.7,8-3c3.1-1.6,6.1-3.4,8.6-5.9c0.7-0.3,1-1.2,1.7-1.6c0.2-0.2,0.5-0.4,0.7-0.7
		c4.1-4.4,7-9.5,9.1-15.1c2.5-6.6,3.7-13.5,4-20.5C95.1,42.9,95.1,40.8,95.1,38.6z M15.5,27.9c0.2,0.1,0.3,0.2,0.5,0.3
		C15.8,28.1,15.6,28,15.5,27.9z M14.3,36.3c-0.4,0.8-0.9,1.5-1.4,2.2c-0.2,0.2-0.4,0.5-0.6,0.7c-0.3,0.5-0.6,1.1-0.9,1.6l0,0
		c0.3-0.5,0.6-1.1,0.9-1.6c0.2-0.2,0.4-0.4,0.6-0.7C13.4,37.8,13.8,37,14.3,36.3z M11,38.5c-0.1-0.1-0.3-0.2-0.4-0.3v0
		C10.7,38.3,10.9,38.4,11,38.5z M10.4,51.4c0.1,1.1,0.2,2.1,0.3,3.2C10.6,53.5,10.5,52.5,10.4,51.4c-0.1-0.1-0.1-0.1-0.2-0.2
		C10.3,51.3,10.4,51.3,10.4,51.4z M16.1,28.5C16.1,28.5,16.1,28.5,16.1,28.5c0.4-0.2,0.8-0.5,1.1-0.9C16.9,28,16.5,28.3,16.1,28.5z
		 M19.6,27.1c-0.2-0.2-0.4-0.2-0.6-0.2C19.2,26.9,19.4,26.9,19.6,27.1L19.6,27.1z M14.6,24.3c-0.1-0.1-0.1-0.1-0.2-0.2h0
		c0.1-0.5,0.6-0.6,1.1-0.7c0.6-0.2,1.2,0,1.7-0.6c0.2-0.3,0.7-0.1,1,0c0.3,0.1,0.6,0.3,0.9,0.4c0,0,0,0,0,0c0.2,0.3,0.7,0.1,0.9,0.6
		c-0.9,0.1-1.7-0.2-2.6-0.2c0.4,0.4,0.9,0.4,1.2,0.9C17.2,24.8,15.9,24.5,14.6,24.3z M16.3,26.4c-0.4,0.5-0.8,0.9-1.1,1.4l0,0
		C15.6,27.3,15.9,26.9,16.3,26.4z M10.3,36.2c0.1-0.1,0.2-0.1,0.3-0.2l0,0C10.5,36.1,10.4,36.2,10.3,36.2c-0.1,0.2-0.2,0.4-0.4,0.5
		C10,36.6,10.1,36.4,10.3,36.2z M8.4,41.1c0-0.1,0-0.3,0-0.4C8.4,40.9,8.4,41,8.4,41.1c-0.3,0.7-0.5,1.4-0.5,2.2
		C7.9,42.6,8.1,41.9,8.4,41.1z M15.1,67.4c0.2-0.1,0.5-0.1,0.7-0.2C15.6,67.3,15.3,67.4,15.1,67.4z M78.3,22.9
		c-0.2-0.3-0.4-0.5-0.6-0.7C77.9,22.4,78.1,22.6,78.3,22.9C78.3,22.9,78.3,22.9,78.3,22.9z M89.6,45.9c-0.4-2-0.8-3.9-1.2-5.9
		C88.8,42,89.2,44,89.6,45.9C89.6,45.9,89.6,45.9,89.6,45.9c0,0.9,0,1.8,0,2.7C89.6,47.7,89.6,46.8,89.6,45.9z M85.6,47.1
		c-0.5,1.6-0.8,3.3-1.3,5C84.8,50.5,85.1,48.8,85.6,47.1c0-0.1,0-0.1,0-0.2C85.6,47,85.6,47.1,85.6,47.1z M86,43.8
		c0.1-0.8,0.2-1.6,0.2-2.4C86.1,42.2,86,43,86,43.8z M88.9,55.6c0.2-0.6,0.4-1.2,0.5-1.9C89.3,54.4,89.1,55,88.9,55.6
		c-0.2,1.1-0.6,2.2-1,3.3C88.3,57.9,88.7,56.8,88.9,55.6z M79.4,71.7c-0.4,0.3-0.7,0.6-1.1,1c-0.1,0.1-0.2,0.2-0.4,0.4l0,0
		c-0.1-0.2-0.3-0.2-0.5-0.2c0.2,0,0.3,0.1,0.5,0.2c0.1-0.1,0.2-0.2,0.4-0.4C78.7,72.3,79,72,79.4,71.7
		C79.4,71.7,79.4,71.7,79.4,71.7z M80.3,65.3c-0.1,0.4-0.1,0.9-0.2,1.3C80.2,66.2,80.2,65.8,80.3,65.3c0.1-0.2,0.1-0.3,0.2-0.5
		C80.4,65,80.4,65.2,80.3,65.3z M92.4,37.4c0.1,1.3,0.2,2.5,0.2,3.8c0,0.8,0,1.6,0,2.4c0-0.8,0-1.6,0-2.4
		C92.6,39.9,92.5,38.6,92.4,37.4s-0.4-2.5-0.7-3.7C92,34.9,92.3,36.1,92.4,37.4z M88.7,37.5c-0.2,0.6-0.4,1.1-0.7,1.6
		c-0.3-0.7-0.5-1.4-0.8-2.1c0.3,0.7,0.5,1.4,0.8,2.1C88.3,38.6,88.6,38.1,88.7,37.5z M70.3,16.2c-0.5-0.2-1-0.4-1.5-0.6
		c-0.5-0.1-1.1-0.3-1.6-0.4c0.5,0.1,1.1,0.3,1.6,0.4C69.3,15.8,69.8,16,70.3,16.2c1.5,0.6,3,1.3,4.5,2c0.9,0.6,1.8,1.3,2.8,1.9
		c-0.9-0.6-1.8-1.3-2.8-1.9C73.3,17.4,71.8,16.8,70.3,16.2z M72.4,22c-1.2-0.5-2.3-1.1-3.5-1.5C70.1,20.9,71.2,21.4,72.4,22
		c1.3,0.8,2.6,1.6,3.8,2.5C75,23.6,73.7,22.7,72.4,22z M64.2,81.1c2.2-1.9,4.2-4,6.1-6.1c0.2-0.2,0.3-0.3,0.6-0.3
		c1.3,0.1,2.6,0.2,3.9-0.1c0.6-0.1,1.2,0,1.8,0.2c-1.2,1.4-2.7,2.4-4.1,3.4l0,0c-1.2,0.7-2.4,1.3-3.7,2c-0.9,0.4-1.8,0.7-2.7,1.1
		c-0.8,0.1-1.4,0.6-2.2,0.6C63.8,81.6,63.9,81.4,64.2,81.1z M69.9,87.8c-0.3,0.4-0.7,0.6-1.1,0.8C69.2,88.4,69.6,88.2,69.9,87.8
		c0.4-0.2,0.8-0.5,1.2-0.8C70.7,87.3,70.3,87.6,69.9,87.8z M83.8,76.7c-0.5,0.9-1.2,1.6-1.9,2.4C82.6,78.4,83.3,77.6,83.8,76.7
		c1.1-1.1,1.9-2.3,2.6-3.6C85.7,74.4,84.8,75.7,83.8,76.7z"/>
	<path fill="#E0782C" d="M19.7,74.9c0.1-0.1-0.1-0.2-0.2-0.3c0,0-0.1,0.1-0.1,0.1C19.4,74.8,19.6,75,19.7,74.9z"/>
	<path fill="#E0782C" d="M40.6,40.4c1.2-1.2,2.7-2,4-3c0.3-0.1,0.6-0.2,0.7-0.5c-0.3,0-0.7,0-0.8,0.4c-0.9,0.3-1.9,0.4-2.9,0.6
		c-1,0.1-2,0.3-2.6,1.2c0.4,0.6,0.7,1.3,1.1,1.9C40.2,40.8,40.4,40.6,40.6,40.4z"/>
	<path fill="#E0782C" d="M48.5,34.5c-0.1-0.2-0.2-0.5-0.2-0.7c0.1,0.4-0.2,0.7-0.4,1c-0.5,0.6-1.3,0.9-1.7,1.6
		C47.4,36.4,47.9,35.4,48.5,34.5z"/>
	<path fill="#E0782C" d="M46.1,36.4c-0.3,0-0.5,0.1-0.5,0.4C45.8,36.8,46.1,36.7,46.1,36.4z"/>
	<polygon fill="#E0782C" points="34.2,52 34.2,52 34.2,52 	"/>
	<path fill="#E0782C" d="M34.8,52.9c-0.2-0.1-0.3-0.3-0.4-0.6c-0.2-0.1-0.2-0.2-0.2-0.4c-0.4-0.5-0.5-1.1-0.6-1.6
		c-0.2,0.3-0.3,0.7-0.3,1.1c-0.1,1.6,0.1,3.2,0.2,4.7c0.4,1.4,0.8,2.8,1.3,4.2c0.3,0,0.6,0.1,0.8,0.3c1.6,1,3.5,1.7,5.3,2
		c1.6,0.3,3.2,0.2,4.8,0c2.4-0.2,4.8-0.6,6.9-1.9c1.2-0.7,2.3-1.1,3.6-0.4c0.6-0.1,1.2-0.2,1.9-0.1c1.3,0.2,2-0.9,1.7-2.1
		c-0.3-0.9-1.1-1.4-1.7-2c-1-0.2-1.8-0.9-2.7-1.1c0.2,0.2,0.4,0.4,0.7,0.5c-0.3-0.1-0.5-0.3-0.7-0.5c-0.2,0-0.4,0-0.7,0
		c-1.8-0.5-3.6-0.2-5.3,0.5c-1.7,0.7-3.4,1.6-5.2,1.7C40.3,57.5,37.3,55.7,34.8,52.9z M53.4,55c-0.4,0-0.7,0.1-1.1,0.2v0
		C52.7,55.1,53.1,55.1,53.4,55z"/>
	<polygon fill="#E0782C" points="34.4,52.3 34.4,52.3 34.4,52.3 	"/>
</g>
<path fill="#5C9CC7" d="M83.3,36.5c-0.1-0.1,0.1-0.4-0.2-0.5c0-0.1,0-0.2,0-0.3c-0.1-1-0.6-1.9-1.1-2.8c0,0,0,0,0,0
	c0-0.1,0-0.3-0.2-0.4c0,0,0,0,0,0c0-0.3-0.2-0.5-0.4-0.7l0,0c0-0.3-0.2-0.6-0.5-0.6c0.1-0.4-0.2-0.7-0.4-1c-0.8-1.2-1.8-2.2-2.7-3.2
	h0c-1.9-2.1-4.2-3.6-6.7-4.8c-0.1-0.1-0.3,0-0.4,0c-0.3-0.1-0.6-0.4-1-0.4c0,0,0,0,0,0c-0.1-0.2-0.3-0.2-0.4-0.2
	c-1.1-0.4-2.2-1-3.5-1.1c0,0,0,0,0,0c-0.1-0.3-0.4-0.1-0.5-0.2l0,0c-0.1-0.3-0.4-0.1-0.5-0.2c0-0.2-0.4-0.1-0.4-0.4
	c1-0.2,2-0.5,2.9-0.7c1-0.1,2.1-0.3,3.1-0.4c0.8-0.1,1.6-0.1,2.6-0.2c-1.2-1.2-2.6-1.6-3.9-2c-0.5-0.2-1-0.3-1.4-0.5c0,0,0,0,0,0
	c-0.7-0.5-1.5-0.5-2.3-0.7c-0.7-0.2-1.5-0.5-2.3-0.5c-0.8,0-1.6-0.2-2.5-0.7c1.9-0.4,3.6-0.3,5.3-0.1c-0.6-0.4-1.1-0.8-1.7-1.2
	c-0.9-0.4-1.8-0.9-2.7-1.3l0,0c0.9,0.4,1.8,0.9,2.7,1.3c0.6,0.4,1.1,0.8,1.7,1.2c0.2,0,0.5,0,0.7,0c1.7,0.3,3.4,0.6,5,1
	c2,0.4,4,1.2,5.9,1.8c0,0.2,0.2,0.2,0.3,0.2c-0.1-0.1-0.1-0.2-0.3-0.2c0-0.2-0.2-0.3-0.4-0.4C70.8,11.1,63.5,8,55.3,6.9
	c-0.6-0.1-1.3,0-1.9-0.3c-2.3,0-4.6,0-7,0c-0.1,0.3-0.4,0.2-0.6,0.2C39.7,7.4,34,9.2,28.7,12.2c-4.1,2.3-7.6,5.2-10.8,8.6
	c0.1,0.1,0.1,0.3,0.2,0.4c0.6,0.6,1.1,1.2,1.7,1.8c0.8,0.2,1.5,0.3,2.3,0.3c-0.5-0.7-1.2-1.1-1.9-1.6c0.7,0.4,1.4,0.9,1.9,1.6
	c0.1,0,0.1,0,0.2,0c1-0.5,2.2-0.4,3.2-0.5c0.3,0,0.7,0,1,0c-0.2-0.4-0.5-0.6-0.8-0.8c0.3,0.2,0.6,0.4,0.8,0.8c0.1,0,0.1,0,0.2,0
	c0.1-0.7,0.1-1.3,0.3-2c-0.2,0.7-0.2,1.3-0.3,2c1.4,0.3,2.8,0.2,4.1,0.7c0.6-0.5,0.9-1.2,1.6-1.5c0.1-0.2,0.3-0.3,0.4-0.5
	c-0.8-0.3-1.6-0.7-2.5-1.1c0.8,0.4,1.6,0.7,2.5,1.1c0.7-0.3,1.2-0.9,2-1.1c1.5-0.9,3.1-1.4,4.8-1.7c0.9-0.2,1.9-0.3,2.8-0.3
	c0.5,0,0.1,0.2,0.1,0.3c0,0.1,0,0.1,0.1,0.2c0-0.1,0-0.1-0.1-0.2c-0.1,0.1-0.1,0.1-0.2,0.2l0,0c-0.5,0.1-0.8,0.3-1.1,0.7l0,0
	c-0.1,0-0.2,0-0.2,0.2l0,0c-0.1,0-0.2,0-0.2,0.1c-0.6,0.6-1.3,1.2-1.8,2l0,0c-0.2,0.2-0.3,0.4-0.5,0.7c0,0.3-0.3,0.3-0.4,0.4
	c-0.3,0.9-0.7,1.7-1,2.6c-0.1,0.5-0.2,1.1-0.3,1.6c0.6,1.5,1.6,2.7,3,3.5c1.2,0.5,2.6,0.4,3.9,0.4c0.8,0,1.6,0,2.4,0.1
	c0.4,0.3,0.8,0.5,1.2,0.8c0.3,0.5,0.9,0.9,0.9,1.6l0,0c0.1,0.2,0.2,0.5,0.2,0.7c-0.6,0.9-1.1,1.9-2.4,1.9l0,0c0,0.3-0.3,0.4-0.5,0.4
	l0,0c-0.1,0.1-0.1,0.1-0.2,0.2l0,0c-0.2,0.3-0.4,0.4-0.7,0.5c-1.3,1-2.9,1.8-4,3c-0.2,0.2-0.4,0.4-0.6,0.6c0,0.2-0.2,0.3-0.1,0.5
	c0.4,0.1,0.3,0.4,0.3,0.7c0.5,1.5,0.6,3.1,0.5,4.7c0,0.6-0.4,0.3-0.6,0.2c-1.1-0.5-2.2-0.9-3.4-1c-0.9,0.4-2,0.7-2.5,1.8
	c0,0.5,0.2,0.7,0.5,0.9c-0.3-0.2-0.5-0.4-0.5-0.9c-0.2,0.2-0.3,0.5-0.4,0.8c-0.3,0.5-0.2,1.1-0.3,1.6c0.2,0.6,0.2,1.2,0.6,1.6
	c0,0.2,0,0.3,0.2,0.4c0.1,0.2,0.2,0.4,0.4,0.6c2.5,2.8,5.5,4.7,9.4,4.4c1.9-0.1,3.5-1,5.2-1.7c1.7-0.7,3.5-1,5.3-0.5
	c0.2,0,0.4,0,0.7,0c1,0.2,1.8,0.9,2.7,1.1c0.5,0.7,1.4,1.1,1.7,2c0.3,1.2-0.4,2.3-1.7,2.1c-0.7-0.1-1.3,0-1.9,0.1
	c-1.1,0.6-2.2,1.2-3.1,2c0.6-0.1,0.5,0.4,0.6,0.7c-0.1-0.3,0-0.8-0.6-0.7c-2.3,1.6-4.6,3.1-7.5,3.5c-1.9,0.3-3.8,0.4-5.7,0.2
	c-0.4,0-0.7-0.1-1.1,0c0.3,0.2,0.7,0.4,1,0.6c4.3,2.9,8.8,5.4,14.2,5.9c2.5,0.2,4.8-0.1,7.1-1c2.1-0.7,4-1.9,5.6-3.4
	c0.9-0.6,1.6-1.6,2.4-2.2c0.3-0.4,0.6-0.7,0.9-1.1c1-1.4,2-2.8,3.1-4.3c0.2,1.3-0.3,2.4-0.5,3.5c-0.2,1.1-0.7,2.2-0.7,3.3
	c2.4-1.2,4.2-6.2,4.4-9.9c0-0.1,0-0.2,0-0.3c0.4-0.5,0.1-1,0.2-1.5c0.2-0.5,0.1-1,0.2-1.5c0-1,0-1.9,0-2.9c-0.1-0.8-0.2-1.7-0.2-2.5
	c0-0.3,0-0.5,0-0.8c0.4,0.2,0.8,0.5,1.2,0.7c0.1,0.1,0.2,0.1,0.3,0.2c0,0,0,0,0,0c0,0.1,0.1,0.2,0.2,0.2c0,0.1,0.1,0.2,0.2,0.2
	c0.3,0.5,0.6,1,0.9,1.5c0.1,0.1,0.2,0.3,0.4,0.3c0.2,0,0.2-0.3,0.2-0.4c0.3-1.3,0.6-2.6,0.7-4c0.4-2.3,0.3-4.5,0.3-6.8
	c0-0.5-0.1-1.1-0.1-1.6c-0.1-1.4-0.4-2.8-0.8-4.2c1,0.3,1.6,0.9,2.2,1.5c0.3,0.4,0.5,0.7,0.8,1.1c0.1,0.2,0.2,0.5,0.5,0.3
	C83.6,37,83.5,36.7,83.3,36.5z M78.1,42.7c-0.1,0-0.3,0-0.4,0C77.8,42.7,78,42.7,78.1,42.7L78.1,42.7z M48,31.4
	c-0.2-0.1-0.3-0.1-0.5-0.1C47.7,31.3,47.8,31.3,48,31.4z M64.9,15.5c0.1,0,0.2,0.1,0.3,0.1C65.1,15.5,65,15.5,64.9,15.5z M76.1,28.5
	c0-0.1,0.1-0.1,0.2-0.1C76.2,28.4,76.1,28.5,76.1,28.5z M75.7,29.3c0.2-0.2,0.3-0.5,0.3-0.8c0,0,0,0,0,0C76,28.8,75.9,29,75.7,29.3z
	 M76.7,42.3c0.2,0.2,0.4,0.3,0.7,0.3C77.1,42.5,76.9,42.4,76.7,42.3z M71.1,44.8C71.1,44.8,71.1,44.8,71.1,44.8
	C70.6,44.8,70.6,44.8,71.1,44.8z M71.3,45 M77.6,27c-0.1,0.3-0.2,0.5-0.4,0.8C77.4,27.6,77.5,27.3,77.6,27C77.6,27,77.6,27,77.6,27z
	 M58,8.2C57,8,56,7.9,55.1,7.8C56,7.9,57,8,58,8.2z M52.1,7.5c-0.5,0-1,0-1.5,0h0C51.2,7.5,51.7,7.5,52.1,7.5z"/>
</svg>
