<?xml version="1.0" encoding="utf-8"?>
<!-- Generator: Adobe Illustrator 21.0.0, SVG Export Plug-In . SVG Version: 6.00 Build 0)  -->
<svg version="1.1" id="Layer_1" xmlns="http://www.w3.org/2000/svg" xmlns:xlink="http://www.w3.org/1999/xlink" x="0px" y="0px"
	 viewBox="0 0 100 100" enable-background="new 0 0 100 100" xml:space="preserve">
<path fill="#53BBEB" d="M5.3,84.7c0-2.3,0-4.6,0-6.8c0.1-0.2,0.3-0.3,0.3-0.5c1.2-8.2,4.3-15.8,8.2-23.1
	c5.2-9.7,11.7-18.4,19.8-25.8c0.3-0.3,0.8-0.5,0.6-1.3c-7.4,4-13.1,9.8-18.5,15.9c-0.3-0.5-0.1-0.8,0-1
	c4.8-17.7,20.8-29.9,39.1-29.8c1.4,0,2.6-0.2,3.9-0.8c5.4-2.4,11-4.3,16.9-5.1c0.8-0.1,1.7,0.1,2.4-0.4c1.1,0,2.3,0,3.4,0
	c1.6,0.6,3.4,0.6,5.1,1.2c5.2,1.9,8.3,7.7,7.6,14.1c-0.4,3.8-1.4,7.5-3,11c-0.3,0.7-0.3,1.2,0,1.9c3.3,6.7,4.7,13.8,4,21.4
	c-0.1,1.5-0.6,1.8-2,1.8c-17.6,0-35.3,0-52.9,0c-0.4,0-0.8,0-1.2,0c-0.8,0-1.1,0.3-1.1,1.1c0,2.3,0.5,4.4,1.5,6.4
	c3.1,6.2,8.2,9.9,15.2,10.2c6.7,0.3,12.3-2.3,16.2-8c0.5-0.7,0.9-1.1,1.8-1.1c6.5,0,12.9,0,19.4,0c1.2,0,1.3,0.4,0.9,1.4
	c-2.1,5.3-5,10.1-9.2,14c-12.2,11.2-26.5,13.7-42.1,9c-3.1-0.9-5.5-1-8.3,0.5c-4.8,2.5-10.1,4.1-15.6,3.9c-5.9-0.2-10.7-3-11.8-9.1
	C5.6,85.2,5.6,84.9,5.3,84.7z M55.1,46.6c4.6,0,9.1,0,13.7,0c4.5,0,4.5-0.1,3.2-4.4c-3.3-10.7-15.1-15.3-25-9.8
	c-4.7,2.6-7.9,6.5-9,11.8c-0.5,2.3-0.4,2.4,1.9,2.4C44.9,46.6,50,46.6,55.1,46.6z M17,65.9c-2.8,4.6-4.9,10.8-5,15.6
	c-0.1,6.4,3.4,10.8,10.7,9.9c3.6-0.5,7-1.8,10.3-3.3c0.4-0.2,1.1-0.2,1.2-0.9c0-0.5-0.6-0.6-1-0.9c-3.6-2.3-6.7-5.2-9.4-8.5
	C20.8,74.3,18.7,70.3,17,65.9z M69.5,14.8c8.5,3.4,15,8.5,19.8,16c1.6-3.7,2.8-7.2,2.7-11.1c-0.1-4.1-2.3-6.9-6.2-7.9
	C80.1,10.5,75,12.5,69.5,14.8z"/>
</svg>
