<?xml version="1.0" encoding="utf-8"?>
<!-- Generator: Adobe Illustrator 21.0.0, SVG Export Plug-In . SVG Version: 6.00 Build 0)  -->
<svg version="1.1" id="Layer_1" xmlns="http://www.w3.org/2000/svg" xmlns:xlink="http://www.w3.org/1999/xlink" x="0px" y="0px"
	 viewBox="0 0 100 100" enable-background="new 0 0 100 100" xml:space="preserve">
<path fill="#881D1A" d="M42.6,18.5c5.4-5.7,12.3-6.9,19.7-6.9c2.8,0,5.5,0.2,8.3,0.2c21.9,5.3,33.5,41.7,15.4,65.2
	c-4.4,5.7-8.1,10.1-17.7,12c-7.7,1.1-12.5,0.4-18.8-2.6c-2.2-1-4.4-1.9-5.7-4.2c14.1,1.8,22.3-2.9,27.3-16.3
	c4.4-11.5,4.1-23.1-1.1-34.3C64.4,19.3,55.6,15.3,42.6,18.5z"/>
<path fill="#EE493B" d="M74.6,87.1c-5.2,3.8-10.5,5.5-13.5,6.3c-18.5,5.1-38.5-2.9-49.1-19.4C1.6,57.8,2.9,36.6,15.3,21.5
	C27.6,6.5,48.8,0.9,66.4,8.1c1.7,0.7,5.9,2.9,9.2,5.5c-3.1-1.5-10.4-2-13.3-2c-7.4,0-14.4,1.1-19.7,6.9c-21.7,16-21,49.7,1.3,63.7
	c3.6,2.2,6.7,5.1,12.2,6.1C65.2,89.9,68.1,88.8,74.6,87.1z"/>
</svg>
