<?xml version="1.0" encoding="utf-8"?>
<!-- Generator: Adobe Illustrator 21.0.0, SVG Export Plug-In . SVG Version: 6.00 Build 0)  -->
<svg version="1.1" id="Layer_1" xmlns="http://www.w3.org/2000/svg" xmlns:xlink="http://www.w3.org/1999/xlink" x="0px" y="0px"
	 viewBox="0 0 100 100" enable-background="new 0 0 100 100" xml:space="preserve">
<circle fill="#CACBCB" cx="50" cy="50" r="45"/>
<circle fill="#4B85C5" cx="50" cy="50" r="40.7"/>
<path fill="#C23E2C" d="M45.4,45.5c1.4-1.2,3.1-2.2,4.5-3.4c1.8-1.5,3.8-2.8,5.7-4.2c1.5-1.2,3.2-2.2,4.8-3.3c4-2.9,8-5.7,12-8.6
	c1.1-0.8,2.2-1.6,3.2-2.4c0.5-0.4,1-0.8,1.5-1.2c0.2-0.1,0.4-0.4,0.5,0.1c-0.6,0.8-1.1,1.6-1.7,2.4c-3,4.3-5.9,8.5-8.9,12.8
	c-3.9,5.5-7.7,11.1-11.6,16.6c-0.1,0.2-0.2,0.5-0.6,0.5c-1.6-1.6-3.2-3.2-4.8-4.8C48.6,48.5,47.1,46.9,45.4,45.5z"/>
<path fill="#EBEBEB" d="M45.4,45.5c1.6,1.4,3.1,3,4.6,4.6c-0.1,0.3-0.3,0.5-0.6,0.7c-3.2,3.2-6.4,6.3-9.6,9.5
	C34.4,65.6,29,71.1,23.6,76.6c-0.2,0.2-0.4,0.6-0.8,0.6c0-0.1,0-0.2,0-0.4c0,0,0,0,0,0c0.2,0,0.2-0.1,0.2-0.3c0,0,0,0,0,0
	c0.1-0.1,0.1-0.1,0.2-0.2c1.3-1.5,2.4-3.1,3.6-4.7c1.3-1.9,2.6-3.7,4-5.6c0.8-1.1,1.6-2.3,2.4-3.4c1.3-1.8,2.6-3.6,3.9-5.4
	c2.7-3.7,5.4-7.5,8-11.2C45.1,45.9,45.2,45.6,45.4,45.5z"/>
<path fill="#CACBCB" d="M22.8,77.2c0.4,0,0.6-0.4,0.8-0.6c5.5-5.4,10.9-10.9,16.4-16.3c3.2-3.1,6.4-6.3,9.6-9.5
	c0.2-0.2,0.5-0.4,0.6-0.7c1.6,1.6,3.2,3.2,4.8,4.8c-3.1,2.2-6.3,4.5-9.4,6.7C38.6,66.4,31.8,71.2,25,76c-0.5,0.4-1,0.9-1.4,1.4
	c-0.3,0.3-0.7,0.5-1.1,0.4c0,0,0,0,0,0c0,0,0,0,0-0.1c0.2,0,0.2-0.2,0.2-0.3l0,0C22.7,77.3,22.7,77.2,22.8,77.2L22.8,77.2z"/>
</svg>
